<?xml version="1.0" encoding="UTF-8"?>
<svg version="1.1" xmlns="http://www.w3.org/2000/svg" width="500" height="500">
<path d="M0 0 C165 0 330 0 500 0 C500 165 500 330 500 500 C335 500 170 500 0 500 C0 335 0 170 0 0 Z " fill="#004AAD" transform="translate(0,0)"/>
<path d="M0 0 C43.89 0 87.78 0 133 0 C130.11721433 1.92185711 127.59895641 2.96706172 124.375 4.1875 C115.64823275 7.8174975 108.84920607 12.08142427 105.08088303 21.04652691 C100.71630308 32.972581 100.57556448 44.71356247 100.64355469 57.22338867 C100.64276209 59.1189127 100.64065958 61.01443656 100.63735962 62.90995789 C100.63226356 68.0172216 100.64568408 73.12428085 100.66288662 78.23151183 C100.67802113 83.59682544 100.67675089 88.96213749 100.67755127 94.32746887 C100.68123321 103.33089649 100.69614736 112.33424739 100.71875 121.33764648 C100.74764694 132.87129012 100.75797826 144.40487217 100.7624321 155.93854809 C100.76642113 165.88844176 100.77891812 175.83832221 100.79277897 185.78820634 C100.79686297 188.97109525 100.79979611 192.15398371 100.80257416 195.33687401 C100.8074937 200.34794854 100.81774133 205.35898646 100.83201218 210.3700428 C100.83650596 212.20213363 100.83936686 214.03422934 100.84041977 215.86632538 C100.25574976 240.92663251 100.25574976 240.92663251 111.421875 262.51171875 C115.62512351 266.48478937 120.24125715 268.69885076 125.546875 270.921875 C128 272 128 272 131 274 C88.1 274 45.2 274 1 274 C3.42351683 271.57648317 5.55324555 270.90815126 8.75 269.6875 C13.71103168 267.68881098 17.098327 265.59364618 21 262 C21.66 262 22.32 262 23 262 C30.564485 247.14119019 31.29919743 233.0562088 31.2746582 216.69995117 C31.27901281 214.77180282 31.28419844 212.84365619 31.29014587 210.91551208 C31.30346704 205.70875031 31.30412221 200.50206142 31.30158257 195.29528594 C31.3005081 190.93434076 31.30540841 186.57341003 31.310188 182.21246797 C31.32125955 171.91629237 31.32173396 161.62015327 31.31567383 151.32397461 C31.30963656 140.73462073 31.32194424 130.1453998 31.3432439 119.5560686 C31.36091014 110.43464002 31.36685332 101.31325356 31.36360615 92.19180852 C31.36180104 86.75715567 31.36435192 81.32259765 31.37832069 75.88796043 C31.39097632 70.77343086 31.38888239 65.6591072 31.37590981 60.54458046 C31.37356117 58.67869113 31.37621645 56.81278695 31.38453293 54.94691467 C31.57037598 32.1263271 31.57037598 32.1263271 21.5078125 12.30078125 C15.5182065 6.61208847 7.55110323 3.99863305 0 1 C0 0.67 0 0.34 0 0 Z " fill="#FEFEFE" transform="translate(84,101)"/>
<path d="M0 0 C18.23815882 -0.04688954 36.47630182 -0.08207143 54.71450806 -0.10362434 C63.18436712 -0.11390134 71.65418854 -0.12789257 80.12402344 -0.15087891 C87.51331739 -0.17092306 94.90258406 -0.18374237 102.29190445 -0.18817699 C106.19813671 -0.19076586 110.10429099 -0.1967746 114.01049805 -0.21146011 C117.70078458 -0.22521907 121.39096237 -0.22918644 125.08127213 -0.22621536 C127.05345308 -0.22701239 129.0256227 -0.23767678 130.99777222 -0.24884033 C140.15540604 -0.22814897 148.9485738 0.70534425 158 2 C159.51006119 2.20174237 159.51006119 2.20174237 161.05062866 2.40756035 C179.42628051 4.97660805 197.21311939 14.69175188 209 29 C226.02275881 52.83786684 229.23702187 82.690988 225.58544922 111.24121094 C224.53290237 116.98680961 222.94453718 122.49751848 221 128 C220.60425781 129.16273438 220.20851563 130.32546875 219.80078125 131.5234375 C213.05547677 149.31669915 199.52707209 162.34617426 182.6171875 170.515625 C168.09261081 176.47603444 154.27481955 179.16990289 138.625 179.09765625 C137.4599292 179.0962413 136.2948584 179.09482635 135.09448242 179.09336853 C131.3962948 179.08779916 127.69816913 179.07525231 124 179.0625 C121.48307379 179.05748104 118.96614663 179.05291883 116.44921875 179.04882812 C110.29943647 179.03869335 104.14978706 179.01911191 98 179 C98 168.11 98 157.22 98 146 C112.625 145.625 112.625 145.625 117.14306641 145.52197266 C134.6266587 145.0132335 153.80602147 143.80510337 167 131 C167.56074219 130.47792969 168.12148438 129.95585937 168.69921875 129.41796875 C180.91125538 116.77528095 180.5516112 97.80994414 180.31640625 81.48828125 C180.07461098 74.39528263 179.08626214 68.4631139 176 62 C175.40445313 60.73736328 175.40445313 60.73736328 174.796875 59.44921875 C168.30881525 46.90426778 159.25393762 41.41797921 146.234375 37.078125 C135.64669404 34.14151074 124.87275015 33.68185044 113.94921875 33.5859375 C112.72384399 33.56829346 111.49846924 33.55064941 110.23596191 33.5324707 C105.71993397 33.4700726 101.20369937 33.42342679 96.6875 33.375 C86.560625 33.25125 76.43375 33.1275 66 33 C66 70.29 66 107.58 66 146 C73.59 146 81.18 146 89 146 C89 156.89 89 167.78 89 179 C85.1225 179.350625 81.245 179.70125 77.25 180.0625 C76.05407227 180.21726807 74.85814453 180.37203613 73.62597656 180.53149414 C69.38279926 180.71436578 65.75746976 180.44671185 62.35756302 177.64798069 C51.19953654 165.70682713 50.35629054 154.13728844 50.828125 138.46484375 C50.85056321 136.24716328 50.86761788 134.0294225 50.87957764 131.81166077 C50.92495427 126.03154332 51.042424 120.25516269 51.17602539 114.47650146 C51.29975644 108.55711398 51.35379368 102.63711038 51.4140625 96.71679688 C51.54197509 85.14290753 51.74622035 73.57176688 52 62 C51.01 62 50.02 62 49 62 C49 61.01 49 60.02 49 59 C46.36 59 43.72 59 41 59 C41 87.38 41 115.76 41 145 C38.33960015 141.67450019 35.75695591 138.37161522 33.25 134.9375 C32.63640625 134.10089844 32.0228125 133.26429688 31.390625 132.40234375 C30.86806374 131.63226738 30.86806374 131.63226738 30.33494568 130.84663391 C28.96516671 128.88690863 28.96516671 128.88690863 27.04798889 126.8021698 C19.17866295 117.01015914 19.92813703 107.44831374 20.10546875 95.3984375 C20.10556755 93.30961772 20.10169816 91.22079438 20.09407043 89.13198853 C20.08268394 83.66100212 20.11613306 78.19129188 20.1619873 72.72052002 C20.22879398 63.96005545 20.23103633 55.19946909 20.22530556 46.43880081 C20.23036987 43.3953575 20.25718876 40.35270491 20.28715515 37.30941772 C20.29380024 35.42812282 20.29991603 33.54682594 20.30541992 31.66552734 C20.31942337 30.83201248 20.33342682 29.99849762 20.34785461 29.13972473 C20.339139 22.04004864 18.90435483 15.42783869 15.4375 9.1875 C12.35941158 6.42511295 9.07956648 4.83973971 5.33984375 3.11328125 C3 2 3 2 0 0 Z " fill="#FDFDFE" transform="translate(204,156)"/>
</svg>
