<?xml version="1.0" encoding="UTF-8"?>
<svg version="1.1" xmlns="http://www.w3.org/2000/svg" width="500" height="500">
<path d="M0 0 C165 0 330 0 500 0 C500 165 500 330 500 500 C335 500 170 500 0 500 C0 335 0 170 0 0 Z " fill="#004AAD" transform="translate(0,0)"/>
<path d="M0 0 C34.82855256 -0.09186159 69.65707713 -0.16219318 104.48572497 -0.20426132 C108.6118214 -0.20926323 112.7379176 -0.21444061 116.86401367 -0.21972656 C118.09599054 -0.22130043 118.09599054 -0.22130043 119.35285582 -0.22290608 C132.59426545 -0.24023905 145.83560453 -0.27173682 159.07697252 -0.30861118 C172.69713796 -0.34621976 186.31726684 -0.36827757 199.93748206 -0.37635398 C208.31963922 -0.38180083 216.70159688 -0.39890561 225.08369251 -0.43166587 C230.85731473 -0.45306073 236.63083614 -0.4591447 242.40449498 -0.45400551 C245.71936316 -0.45148172 249.03361303 -0.45721581 252.34846306 -0.4768219 C277.06662261 -0.61566735 301.0359838 1.28318568 324 11 C325.134375 11.47308594 326.26875 11.94617188 327.4375 12.43359375 C348.45534456 22.09413949 363.97695688 40.35134215 372.46484375 61.61328125 C385.1409951 96.07233505 384.04412803 139.39669288 368.75 172.6875 C365.28794053 179.92384712 361.56065021 186.15444015 356 192 C355.56848633 192.4748584 355.13697266 192.9497168 354.69238281 193.43896484 C344.83719709 204.26458117 333.67529328 211.58148757 320 217 C318.94039063 217.42023438 317.88078125 217.84046875 316.7890625 218.2734375 C297.22631035 225.39894325 277.08723777 226.62324464 256.453125 226.56640625 C254.09421547 226.57165716 251.73530804 226.57793893 249.37640381 226.58518982 C244.488952 226.59548636 239.60179349 226.59117587 234.71435547 226.57641602 C228.44520941 226.55903229 222.17696325 226.58301831 215.90791702 226.61790562 C211.0627229 226.63979389 206.21774848 226.6384625 201.37252045 226.6301403 C199.05838772 226.62932013 196.74423898 226.6361961 194.43015289 226.65091133 C191.21880297 226.66824585 188.00913233 226.65391864 184.79785156 226.63110352 C183.8442424 226.64279572 182.89063324 226.65448792 181.90812683 226.66653442 C179.49633596 226.63150376 177.34208659 226.57638483 175 226 C172.88763428 223.46055603 172.88763428 223.46055603 172 221 C173.98 221 175.96 221 178 221 C178 208.79 178 196.58 178 184 C183.83171875 183.97421875 189.6634375 183.9484375 195.671875 183.921875 C199.40889556 183.89665172 203.14583953 183.87027683 206.8828125 183.83984375 C212.78938893 183.79184875 218.69578763 183.74767894 224.60253906 183.72900391 C229.37497609 183.71364488 234.14694192 183.67886918 238.91916656 183.63169098 C240.72238269 183.61707246 242.52566617 183.6089705 244.32894135 183.60811615 C266.57495929 183.58701502 289.08148144 180.564751 306.15234375 165.04296875 C320.40676958 150.29606755 323.65156462 129.75363398 323.33447266 109.97167969 C322.8096779 94.02428016 319.21836712 79.25438796 310 66 C309.58492188 65.37738281 309.16984375 64.75476563 308.7421875 64.11328125 C298.09518982 49.92791009 277.92745083 45.69216506 261.36394119 43.28264999 C254.15272976 42.42042513 246.87297776 42.51385384 239.62109375 42.48828125 C238.0299756 42.47275641 236.43886945 42.45594945 234.84777832 42.43786621 C229.04448371 42.38065989 223.24096821 42.34796328 217.4375 42.3125 C197.9159375 42.1578125 197.9159375 42.1578125 178 42 C178 71.37 178 100.74 178 131 C175.69 131 173.38 131 171 131 C171 160.04 171 189.08 171 219 C168.26637027 216.26637027 166.33015087 214.2451637 164.2578125 211.15625 C163.74734375 210.40214844 163.236875 209.64804687 162.7109375 208.87109375 C162.18757812 208.08863281 161.66421875 207.30617188 161.125 206.5 C160.10833873 204.98852753 159.08999705 203.47818452 158.0703125 201.96875 C157.48813965 201.05641602 156.9059668 200.14408203 156.30615234 199.20410156 C154.45042346 196.62580537 152.66857961 194.59627221 150.46337891 192.35058594 C135.88999519 176.40399101 138.35477108 157.3120736 139.03869629 137.07818604 C139.18373791 132.32514943 139.24623339 127.57103306 139.31640625 122.81640625 C139.46510031 113.54147809 139.70296561 104.2712832 140 95 C139.34 95 138.68 95 138 95 C138 94.34 138 93.68 138 93 C136.02 93 134.04 93 132 93 C132 116.1 132 139.2 132 163 C124.9508042 155.9508042 120.2360728 150.38970854 120.09892273 140.13571167 C120.12971672 138.5043779 120.12971672 138.5043779 120.16113281 136.84008789 C120.15517593 135.66636124 120.14921906 134.49263458 120.14308167 133.28334045 C120.13103582 129.42904792 120.16739297 125.57677526 120.203125 121.72265625 C120.20554735 119.02799955 120.19655368 116.33341793 120.18743896 113.63877869 C120.17172117 107.2806638 120.18880983 100.92313492 120.2201097 94.56509346 C120.27547855 83.19353242 120.2838764 71.82196044 120.26660609 60.45029062 C120.26122985 55.83016265 120.28363466 51.21065623 120.31280518 46.59059143 C120.31625142 44.15683063 120.31911013 41.7230689 120.32128906 39.28930664 C120.33372147 38.20377502 120.34615387 37.11824341 120.35896301 35.99981689 C120.33804879 27.12996724 119.30182047 17.6786475 113.5859375 10.5078125 C110.52983555 7.60225744 107.0110662 5.3187067 103 4 C97.12347347 4.61066315 93.37227069 7.59581604 89.3125 11.75 C81.76269 22.36054378 82.84496035 35.19521899 82.82299805 47.6706543 C82.81672224 49.24530686 82.81007448 50.81995798 82.80308533 52.39460754 C82.78217923 57.53780106 82.7716971 62.68099442 82.76171875 67.82421875 C82.75766647 69.60355964 82.75354941 71.38290039 82.74936867 73.16224098 C82.73034829 81.52367353 82.71610947 89.88509742 82.7077567 98.2465474 C82.69798929 107.86195718 82.67166943 117.47713648 82.63125581 127.0924651 C82.6009981 134.55013039 82.5862788 142.00772992 82.58297569 149.46545535 C82.58063674 153.90811712 82.57182746 158.35053176 82.54651451 162.79312706 C82.52305801 166.97690368 82.51907026 171.16027345 82.52927589 175.34409904 C82.52976708 176.86855685 82.52357167 178.39303593 82.50971985 179.91743088 C82.4084139 191.73951348 82.92551936 205.36500216 91.71875 214.3125 C96.35785906 217.74416972 101.66340672 219.88141259 107 222 C107 222.33 107 222.66 107 223 C72.02 223 37.04 223 1 223 C3.23840332 220.76159668 4.79493496 220.23968225 7.75 219.1875 C14.78180849 216.42138513 18.84344413 213.17032327 22.140625 206.2578125 C24.26315417 200.68134951 25.25082796 195.70210799 25.26069641 189.73368835 C25.26452196 189.03647559 25.26834751 188.33926282 25.27228898 187.62092239 C25.28254364 185.30278584 25.27864129 182.98490048 25.2746582 180.66674805 C25.27900891 178.99723076 25.28419326 177.32771547 25.29014587 175.65820312 C25.30350993 171.13534058 25.30411733 166.61256173 25.30158257 162.08968329 C25.30051089 158.30759825 25.30540139 154.52553 25.310188 150.74344856 C25.32127467 141.81633893 25.32172561 132.88927138 25.31567383 123.9621582 C25.30963689 114.76846876 25.32193986 105.57493247 25.3432439 96.38126916 C25.36088885 88.47444553 25.36685661 80.56767052 25.36360615 72.66082793 C25.36179744 67.94445843 25.36438813 63.22819813 25.37832069 58.51184654 C25.39094122 54.0737073 25.38891515 49.63580578 25.37590981 45.19766998 C25.37355348 43.5747933 25.37624464 41.95189966 25.38453293 40.32904243 C25.43713163 29.22372196 25.18042075 18.77664158 17.87109375 9.75390625 C12.99890193 5.18686215 6.32687777 2.83146462 0 1 C0 0.67 0 0.34 0 0 Z " fill="#FDFDFE" transform="translate(67,126)"/>
</svg>
