<?xml version="1.0" encoding="UTF-8"?>
<svg version="1.1" xmlns="http://www.w3.org/2000/svg" width="500" height="500">
<path d="M0 0 C165 0 330 0 500 0 C500 165 500 330 500 500 C335 500 170 500 0 500 C0 335 0 170 0 0 Z " fill="#004AAD" transform="translate(0,0)"/>
<path d="M0 0 C9.07019097 -0.00943839 18.14034575 -0.02681808 27.21051735 -0.04753304 C38.44882865 -0.07299631 49.68709042 -0.08723039 60.92543155 -0.08782411 C66.76210955 -0.08837141 72.59868041 -0.09362964 78.43533272 -0.11170387 C83.86632764 -0.12828491 89.29714344 -0.13033145 94.72815496 -0.12167072 C96.69279336 -0.12093013 98.65744212 -0.12515121 100.62205511 -0.13516903 C119.2094422 -0.22431782 137.30518371 1.65113682 155.10074562 7.23591423 C155.77556984 7.44587029 156.45039406 7.65582634 157.14566749 7.8721447 C186.50985377 17.15462507 210.55200113 35.49300587 225.09293312 62.91950798 C229.37111529 71.3883564 232.17020152 80.18905313 234.58951515 89.34187126 C235.02646562 90.96071642 235.51012257 92.56683237 236.00308937 94.16950798 C247.1684547 132.44282496 242.12220488 182.95024759 223.01773781 217.80378532 C213.06163117 235.01061664 199.5744353 248.68031406 182.10074562 258.23591423 C181.02437843 258.84048454 179.94801124 259.44505486 178.83902687 260.06794548 C169.32090756 265.14206483 159.44817817 268.31153719 149.10074562 271.23591423 C148.04887062 271.54400017 146.99699562 271.85208611 145.91324562 272.16950798 C124.95866662 277.66439079 102.73531465 277.71177102 81.23355812 277.70466423 C79.24375074 277.70998042 77.25394326 277.71530654 75.26413852 277.72153139 C69.0634775 277.74049224 62.86295104 277.74374189 56.66226906 277.73689079 C50.28706454 277.73017849 43.91242801 277.75346046 37.53733879 277.79020452 C31.35212379 277.82454591 25.16717952 277.83124647 18.98187584 277.82711601 C16.36712496 277.82880891 13.75236659 277.83846764 11.1376757 277.8562603 C7.50786769 277.87829964 3.8794729 277.86883233 0.2496714 277.85114861 C-0.82653969 277.86441185 -1.90275078 277.87767509 -3.01157433 277.89134026 C-10.27530005 277.80876968 -10.27530005 277.80876968 -13.59606224 274.75996208 C-14.89925438 272.23591423 -14.89925438 272.23591423 -14.89925438 271.23591423 C-12.58925438 271.23591423 -10.27925438 271.23591423 -7.89925438 271.23591423 C-7.89925438 256.05591423 -7.89925438 240.87591423 -7.89925438 225.23591423 C-0.55417626 225.18692986 6.79090187 225.13794548 14.35855812 225.08747673 C19.03435247 225.05205752 23.7101293 225.0160787 28.38590187 224.97810173 C35.79424114 224.9179834 43.20255613 224.85984617 50.61099952 224.81403923 C56.58926282 224.77694489 62.56738988 224.73052187 68.5455355 224.67785072 C70.81704878 224.65943428 73.0885911 224.64428024 75.36014885 224.63257027 C90.80913125 224.55013886 105.61869647 224.42592169 120.28824562 218.98591423 C121.14482765 218.67363884 122.00140968 218.36136345 122.88394874 218.03962517 C141.83835813 210.96590291 154.31136081 200.09309842 162.81558937 181.59138298 C174.05612356 155.41613186 173.06531999 120.85054719 162.63590187 94.54060173 C154.40309008 76.91269885 141.16979593 65.38035203 123.10074562 58.23591423 C117.87490354 56.47664268 112.52320011 55.22119035 107.10074562 54.23591423 C106.22131294 54.06978127 105.34188026 53.9036483 104.43579811 53.732481 C92.86747505 51.80993251 81.33785235 51.88346468 69.63980812 51.82185173 C67.64850838 51.80487898 65.65721568 51.78705825 63.66593117 51.76838493 C56.35261659 51.70566161 49.03916952 51.6592383 41.72574562 51.61091423 C25.34949562 51.48716423 8.97324562 51.36341423 -7.89925438 51.23591423 C-7.89925438 87.20591423 -7.89925438 123.17591423 -7.89925438 160.23591423 C-10.86925438 160.23591423 -13.83925438 160.23591423 -16.89925438 160.23591423 C-16.89925438 195.87591423 -16.89925438 231.51591423 -16.89925438 268.23591423 C-26.21989926 256.58510813 -34.87974431 244.37273751 -43.03542382 231.87927055 C-44.86145894 229.17611181 -44.86145894 229.17611181 -47.16288048 226.73516655 C-55.88817484 216.34778403 -55.06690498 205.92219942 -54.77816063 192.87263298 C-54.76134557 190.62679422 -54.74854812 188.38092214 -54.73957115 186.13503838 C-54.70543536 180.26357956 -54.61722829 174.39416907 -54.51723534 168.52351189 C-54.42467109 162.51712049 -54.38395764 156.51039355 -54.33870751 150.50349236 C-54.24258769 138.74673986 -54.08926441 126.99149829 -53.89925438 115.23591423 C-54.88925438 115.23591423 -55.87925438 115.23591423 -56.89925438 115.23591423 C-56.89925438 114.57591423 -56.89925438 113.91591423 -56.89925438 113.23591423 C-59.53925438 113.23591423 -62.17925438 113.23591423 -64.89925438 113.23591423 C-64.89925438 141.61591423 -64.89925438 169.99591423 -64.89925438 199.23591423 C-66.87925438 196.76091423 -66.87925438 196.76091423 -68.89925438 194.23591423 C-69.66529771 193.37761513 -70.43134104 192.51931602 -71.2205978 191.63500786 C-77.91647565 183.69226251 -79.18627644 177.89024475 -78.98104149 167.66169548 C-78.98510202 166.24097397 -78.99315453 164.82025922 -79.0048452 163.39958 C-79.02544605 159.57645304 -78.99159313 155.75557561 -78.94786578 151.93271828 C-78.91198771 147.91044861 -78.92915299 143.88840347 -78.94089562 139.86604118 C-78.95555965 132.25179533 -78.92641636 124.63842139 -78.87972462 117.02432919 C-78.81304346 105.87248105 -78.80672805 94.72056379 -78.80739743 83.56854057 C-78.80742526 82.74649919 -78.80745309 81.9244578 -78.80748177 81.07750607 C-78.80755682 79.43691857 -78.80775429 77.79633107 -78.80807745 76.1557436 C-78.80746327 71.38539476 -78.79223859 66.61538355 -78.76377434 61.84512138 C-78.74727007 58.86618948 -78.73859851 55.88726365 -78.731278 52.90829659 C-78.72354494 50.89249361 -78.70545709 48.87673843 -78.68692833 46.86100578 C-78.6685948 34.64877186 -79.11951671 21.64469973 -87.79378563 12.16560173 C-91.42518608 8.84665448 -95.18130999 5.77437436 -99.89925438 4.23591423 C-104.51749976 5.03908734 -108.11036391 7.47535987 -111.96956688 10.01716423 C-113.89925438 11.23591423 -113.89925438 11.23591423 -116.01644188 12.14216423 C-118.39608164 13.52452758 -118.86466129 14.7187123 -119.89925438 17.23591423 C-120.39425438 18.21237907 -120.39425438 18.21237907 -120.89925438 19.20857048 C-126.62706883 31.1788077 -126.18858648 43.57811256 -126.15804344 56.54597282 C-126.16075745 58.48707014 -126.16432068 60.42816643 -126.16866356 62.36926079 C-126.17774228 67.61520866 -126.17426168 72.86107741 -126.16790539 78.10702658 C-126.16282049 83.61423477 -126.16754388 89.12143647 -126.17067772 94.62864494 C-126.17431074 103.87697876 -126.16953635 113.12528059 -126.15999657 122.37360954 C-126.14911976 133.0407777 -126.15263468 143.70786935 -126.16364938 154.37503564 C-126.1727489 163.55755686 -126.17399433 172.74005514 -126.16877204 181.92257941 C-126.16566614 187.39628325 -126.16520473 192.86995124 -126.17184502 198.34365273 C-126.17765648 203.49342269 -126.17355253 208.64309483 -126.16205651 213.79285431 C-126.15942986 215.67409351 -126.16014052 217.55534105 -126.16458184 219.43657684 C-126.4351305 242.73213387 -126.4351305 242.73213387 -116.30159813 263.14216423 C-110.4276471 268.58563658 -102.51619224 272.03101117 -94.89925438 274.23591423 C-94.89925438 274.56591423 -94.89925438 274.89591423 -94.89925438 275.23591423 C-138.78925438 275.23591423 -182.67925438 275.23591423 -227.89925438 275.23591423 C-225.51123609 272.84789594 -223.48543056 272.19230357 -220.33675438 270.98591423 C-210.36781244 266.84313237 -204.82004584 263.51314065 -200.09066063 253.52888298 C-197.55050938 246.50807149 -196.60207577 239.78224283 -196.63182884 232.34461784 C-196.62729773 231.49672148 -196.62276662 230.64882513 -196.6180982 229.77523494 C-196.60552702 226.95901134 -196.60706983 224.14298294 -196.60872704 221.32673454 C-196.60273723 219.29726223 -196.59593064 217.26779219 -196.58837181 215.23832512 C-196.57075054 209.74228045 -196.56601806 204.24629812 -196.56474024 198.75022793 C-196.56331587 195.31159955 -196.55904085 191.87298688 -196.55374581 188.43436241 C-196.53525822 176.42419242 -196.52707359 164.41406673 -196.52864891 152.40388298 C-196.52984991 141.23114881 -196.50875246 130.05860794 -196.47716159 118.88592267 C-196.45095955 109.27456803 -196.44028327 99.66327638 -196.44155973 90.05188632 C-196.44206821 84.31987818 -196.43644795 78.58804194 -196.41520363 72.85606956 C-196.39575512 67.46166352 -196.39574196 62.06759217 -196.4102369 56.6731739 C-196.4123179 54.70162654 -196.4076667 52.73005785 -196.39551598 50.75854683 C-196.31633434 37.01269988 -196.52749201 23.60135759 -206.21566063 12.76325798 C-211.68156222 7.4069484 -218.89611233 4.97500724 -225.89925438 2.23591423 C-225.89925438 1.90591423 -225.89925438 1.57591423 -225.89925438 1.23591423 C-150.60252471 0.26764274 -75.30213441 0.07236454 0 0 Z " fill="#FDFEFE" transform="translate(244.89925438165665,102.76408576965332)"/>
<path d="M0 0 C1.67045922 0.08588957 3.34420786 0.11332494 5.01686096 0.10679626 C6.05303558 0.10528061 7.08921021 0.10376495 8.15678406 0.10220337 C9.29299698 0.095466 10.4292099 0.08872864 11.59985352 0.08178711 C13.39522552 0.07718727 13.39522552 0.07718727 15.22686768 0.07249451 C18.50980016 0.06346064 21.79268571 0.0501217 25.07559705 0.03553081 C28.50863472 0.02184243 31.94168335 0.01538361 35.3747406 0.00868225 C47.07074638 -0.01547986 58.76670121 -0.05140572 70.46264648 -0.09594727 C76.92268455 -0.12047225 83.38270275 -0.13784751 89.84278053 -0.14750665 C93.26228248 -0.15298428 96.68167879 -0.16241381 100.10113716 -0.18089485 C103.91064436 -0.20000771 107.7199925 -0.20699254 111.52954102 -0.21118164 C112.66777817 -0.21994324 113.80601532 -0.22870483 114.97874451 -0.23773193 C116.5287767 -0.23577568 116.5287767 -0.23577568 118.11012268 -0.23377991 C119.01142694 -0.23692231 119.91273119 -0.24006472 120.84134769 -0.24330235 C123 0 123 0 125 2 C81.11 2 37.22 2 -8 2 C-5.14066998 -0.85933002 -3.8625627 -1.2875209 0 0 Z " fill="#BFD1EA" transform="translate(25,376)"/>
</svg>
