<svg id="visual" viewBox="0 0 960 540" width="960" height="540" xmlns="http://www.w3.org/2000/svg" xmlns:xlink="http://www.w3.org/1999/xlink" version="1.1"><path d="M0 71L87 109L175 131L262 93L349 60L436 66L524 66L611 98L698 77L785 152L873 120L960 66L960 0L873 0L785 0L698 0L611 0L524 0L436 0L349 0L262 0L175 0L87 0L0 0Z" fill="#0047cc"></path><path d="M0 152L87 147L175 244L262 201L349 109L436 131L524 131L611 168L698 179L785 201L873 212L960 163L960 64L873 118L785 150L698 75L611 96L524 64L436 64L349 58L262 91L175 129L87 107L0 69Z" fill="#063ab9"></path><path d="M0 260L87 363L175 368L262 352L349 222L436 255L524 406L611 401L698 287L785 303L873 357L960 347L960 161L873 210L785 199L698 177L611 166L524 129L436 129L349 107L262 199L175 242L87 145L0 150Z" fill="#082da6"></path><path d="M0 471L87 487L175 503L262 476L349 498L436 492L524 498L611 487L698 482L785 492L873 509L960 503L960 345L873 355L785 301L698 285L611 399L524 404L436 253L349 220L262 350L175 366L87 361L0 258Z" fill="#072194"></path><path d="M0 541L87 541L175 541L262 541L349 541L436 541L524 541L611 541L698 541L785 541L873 541L960 541L960 501L873 507L785 490L698 480L611 485L524 496L436 490L349 496L262 474L175 501L87 485L0 469Z" fill="#031482"></path></svg>